<svg height="512pt" fill="#fff" viewBox="0 0 511 512" width="512pt" xmlns="http://www.w3.org/2000/svg"><path d="m497.484375 482c-18.300781 0-33.183594-14.886719-33.183594-33.199219 0-8.285156-6.71875-15-15-15-8.285156 0-15 6.714844-15 15 0 18.304688-14.894531 33.199219-33.203125 33.199219-18.304687 0-33.199218-14.894531-33.199218-33.199219v-64.269531c0-8.28125-6.714844-15-15-15h-19l-28.132813-211h3.527344c8.285156 0 15-6.714844 15-15v-64.265625c0-8.28125-6.714844-15-15-15h-5.660157v-17.148437c0-25.980469-21.136718-47.117188-47.148437-47.117188-25.980469 0-47.117187 21.136719-47.117187 47.117188v17.148437h-5.652344c-8.285156 0-15 6.714844-15 15v64.265625c0 8.285156 6.714844 15 15 15h3.519531l-28.132813 211h-19c-8.285156 0-15 6.71875-15 15v64.269531.007813.007812c0 18.296875-14.886718 33.183594-33.21875 33.183594-18.296874 0-33.183593-14.886719-33.183593-33.199219 0-8.285156-6.714844-15-15-15-8.285157 0-15 6.714844-15 15 0 18.304688-14.894531 33.199219-33.199219 33.199219-8.285156 0-15 6.714844-15 15s6.714844 15 15 15c19.292969 0 36.59375-8.6875 48.195312-22.359375 11.605469 13.667969 28.910157 22.359375 48.21875 22.359375 19.289063 0 36.585938-8.6875 48.1875-22.355469 11.597657 13.667969 28.902344 22.355469 48.199219 22.355469 19.292969 0 36.59375-8.6875 48.195313-22.359375 11.601562 13.671875 28.902344 22.359375 48.203125 22.359375 19.292969 0 36.597656-8.691406 48.199219-22.363281 11.605468 13.671875 28.90625 22.363281 48.203124 22.363281 19.292969 0 36.59375-8.6875 48.195313-22.359375 11.597656 13.671875 28.902344 22.359375 48.203125 22.359375 8.285156 0 14.992188-6.714844 14.992188-15s-6.722657-15-15.007813-15zm-273.070313-225.320312 60.160157-30.082032 5.851562 43.867188-72.695312 36.347656zm69.878907-128.148438h-75.578125v-34.265625h75.578125zm-54.925781-81.414062c0-9.4375 7.679687-17.117188 17.148437-17.117188 9.4375 0 17.117187 7.679688 17.117187 17.117188v17.148437h-34.269531v-17.148437zm36.132812 111.414062 4.882812 36.625-51.179687 25.585938 8.296875-62.210938zm-62.5625 184.214844 81.679688-40.835938 9.015624 67.621094h-94.265624zm91.746094 139.253906c-18.296875 0-33.183594-14.886719-33.183594-33.199219 0-8.285156-6.714844-15-15-15s-15 6.714844-15 15c0 18.304688-14.894531 33.199219-33.214844 33.199219-18.300781 0-33.1875-14.886719-33.1875-33.199219v-49.269531h162.800782v49.269531c0 18.304688-14.890626 33.199219-33.214844 33.199219zm0 0"/><path d="m365.324219 158.085938 128.535156 32.132812c7.660156 1.917969 16.085937-2.5 18.1875-10.914062 2.011719-8.035157-2.875-16.179688-10.914063-18.1875l-128.53125-32.136719c-8.027343-2.007813-16.179687 2.878906-18.191406 10.914062-2.007812 8.039063 2.878906 16.179688 10.914063 18.191407zm0 0"/><path d="m19.140625 190.21875 128.535156-32.132812c8.035157-2.011719 12.921875-10.152344 10.914063-18.191407-2.011719-8.035156-10.160156-12.925781-18.191406-10.914062l-128.53125 32.132812c-8.039063 2.011719-12.925782 10.15625-10.914063 18.191407 2.082031 8.332031 10.449219 12.851562 18.1875 10.914062zm0 0"/><path d="m372.601562 93.816406 128.53125-32.132812c8.039063-2.007813 12.925782-10.152344 10.914063-18.1875-2.007813-8.039063-10.15625-12.929688-18.1875-10.914063l-128.535156 32.132813c-8.035157 2.007812-12.921875 10.152344-10.914063 18.1875 2.105469 8.414062 10.523438 12.835937 18.191406 10.914062zm0 0"/><path d="m11.867188 61.6875 128.53125 32.132812c7.664062 1.917969 16.085937-2.5 18.191406-10.914062 2.007812-8.039062-2.878906-16.183594-10.914063-18.191406l-128.535156-32.132813c-8.027344-2.007812-16.179687 2.878907-18.1875 10.914063-2.011719 8.035156 2.875 16.179687 10.914063 18.191406zm0 0"/></svg>